<?xml version="1.0" encoding="UTF-8"?>
<svg id="Layer_1" xmlns="http://www.w3.org/2000/svg" viewBox="0 0 1956.96 1956.96">
  <defs>
    <style>
      .cls-1 {
        fill: #fff;
      }

      .cls-2 {
        fill: blue;
      }
    </style>
  </defs>
  <circle class="cls-2" cx="978.48" cy="978.48" r="978.48"/>
  <g>
    <path class="cls-1" d="M393.79,1118.9v-253.16h-83.85v-27.68h201.41v27.68h-83.85v253.16h-33.7Z"/>
    <path class="cls-1" d="M665.01,1123.72c-27.02,0-50.82-6.08-71.42-18.26-20.6-12.17-36.71-29.15-48.35-50.95-11.63-21.8-17.45-47.14-17.45-76.03s5.82-53.82,17.45-75.63c11.64-21.8,27.75-38.85,48.35-51.15,20.59-12.3,44.4-18.46,71.42-18.46s51.62,6.16,72.22,18.46c20.59,12.31,36.57,29.36,47.94,51.15,11.37,21.8,17.05,47.01,17.05,75.63s-5.69,54.23-17.05,76.03c-11.37,21.8-27.35,38.79-47.94,50.95-20.6,12.17-44.67,18.26-72.22,18.26ZM665.01,1094.03c20.32,0,38.25-4.61,53.76-13.84,15.51-9.23,27.55-22.47,36.11-39.72,8.56-17.25,12.84-37.91,12.84-61.99s-4.28-44.74-12.84-61.99c-8.56-17.25-20.6-30.42-36.11-39.52-15.52-9.09-33.44-13.64-53.76-13.64s-38.18,4.55-53.56,13.64c-15.38,9.1-27.42,22.27-36.11,39.52-8.69,17.25-13.04,37.91-13.04,61.99s4.34,44.73,13.04,61.99c8.69,17.25,20.72,30.49,36.11,39.72,15.38,9.23,33.23,13.84,53.56,13.84Z"/>
    <path class="cls-1" d="M850.77,1118.9v-280.85h84.25c32.9,0,60.04,5.69,81.45,17.05,21.4,11.37,37.24,27.55,47.54,48.55,10.29,21,15.45,46.21,15.45,75.63s-5.15,53.76-15.45,74.63c-10.3,20.86-26.15,36.91-47.54,48.14-21.4,11.23-48.55,16.85-81.45,16.85h-84.25ZM884.47,1090.82h49.75c27.28,0,49.01-4.48,65.2-13.44,16.18-8.96,27.75-21.8,34.7-38.52,6.95-16.71,10.43-36.57,10.43-59.58s-3.48-43.73-10.43-60.58c-6.96-16.85-18.52-29.82-34.7-38.92-16.19-9.09-37.92-13.64-65.2-13.64h-49.75v224.68Z"/>
    <path class="cls-1" d="M1254.38,1123.72c-27.02,0-50.82-6.08-71.42-18.26-20.6-12.17-36.71-29.15-48.35-50.95-11.64-21.8-17.45-47.14-17.45-76.03s5.82-53.82,17.45-75.63c11.63-21.8,27.75-38.85,48.35-51.15,20.59-12.3,44.4-18.46,71.42-18.46s51.62,6.16,72.22,18.46c20.59,12.31,36.57,29.36,47.94,51.15,11.37,21.8,17.05,47.01,17.05,75.63s-5.69,54.23-17.05,76.03c-11.37,21.8-27.35,38.79-47.94,50.95-20.6,12.17-44.67,18.26-72.22,18.26ZM1254.38,1094.03c20.32,0,38.25-4.61,53.76-13.84,15.51-9.23,27.55-22.47,36.11-39.72,8.56-17.25,12.84-37.91,12.84-61.99s-4.28-44.74-12.84-61.99c-8.56-17.25-20.6-30.42-36.11-39.52-15.52-9.09-33.44-13.64-53.76-13.64s-38.18,4.55-53.56,13.64c-15.38,9.1-27.42,22.27-36.11,39.52-8.7,17.25-13.04,37.91-13.04,61.99s4.34,44.73,13.04,61.99c8.69,17.25,20.72,30.49,36.11,39.72,15.38,9.23,33.23,13.84,53.56,13.84Z"/>
    <path class="cls-1" d="M1463.67,992.52v-28.49h183.35v28.49h-183.35ZM1540.3,1065.94v-174.93h30.09v174.93h-30.09Z"/>
  </g>
</svg>